<svg xmlns="http://www.w3.org/2000/svg" viewBox="0 0 64 64" fill="none">
  <rect width="64" height="64" rx="12" fill="#f97b1b"/>
  <path d="M20 28h16c2 0 4 2 4 4v10c0 3-2 5-5 5h-10c-3 0-5-2-5-5V32c0-2 2-4 4-4z" fill="#fff"/>
  <path d="M40 32h2c2 0 3 1 3 3v2c0 2-1 3-3 3h-2" stroke="#fff" stroke-width="2" fill="none"/>
  <path d="M24 20c0 0 1-3 4-3s4 3 4 3M32 20c0 0 1-3 4-3s4 3 4 3" stroke="#FFD93D" stroke-width="1.5" stroke-linecap="round" fill="none"/>
  <ellipse cx="28" cy="47" rx="10" ry="2" fill="#FFD93D" opacity="0.3"/>
  <path d="M22 50h12" stroke="#fff" stroke-width="2" stroke-linecap="round"/>
</svg>
